<svg xmlns="http://www.w3.org/2000/svg" viewBox="0 0 96 96" role="img" aria-label="Hobbes Digital monogram B">
  
  <rect width="96" height="96" rx="10" fill="#131A1A"></rect>
  
  <g fill="#EDE7DA">
    <rect x="16" y="20" width="13" height="56"></rect>
    <rect x="16" y="44" width="64" height="8"></rect>
    <rect x="67" y="20" width="13" height="56"></rect>
  </g>
  
  <path d="M 32 23 L 50 23 Q 64 23 64 39 L 64 41 L 32 41 Z" fill="#131A1A"></path>
  <path d="M 32 55 L 64 55 L 64 57 Q 64 73 50 73 L 32 73 Z" fill="#131A1A"></path>
  
  <path d="M 50 23 Q 64 23 64 41 L 60 41 Q 60 27 50 27 Z" fill="#8E2A2A"></path>
  <path d="M 50 73 Q 64 73 64 55 L 60 55 Q 60 69 50 69 Z" fill="#8E2A2A"></path>
</svg>